# xmcd
# Track frame offsets:
# 150
# 14887
# 33149
# 51186
# 68098
# 87935
# 105222
# 118534
# 135896
# 153483
# 170395
# 184532
# 202644
# 220831
# 237068
# 253305
# 268792
# 283829
# 299391
#
# Disc length: 4207 seconds
# Revision: 0
# Processed by: cddbd v1.5.2PL0 Copyright (c) Steve Scherf et al.
# Submitted via: VisiTrax 2.10.3.257 - For more info visit www.synapsa.com
#
DISCID=07106d13
DTITLE=Various Artist - Promo Only Country Radio - December 2007
DYEAR=1900
DGENRE=
TTITLE0=Gretchen Wilson - You Don't Have To Go Home
TTITLE1=Rascall Flatts - Winner At A Losing Game
TTITLE2=Flynnville Train - Tequila Sheila
TTITLE3=Rodney Atkins - Cleaning This Gun
TTITLE4=brad Paisley - Letter To Me
TTITLE5=Lady Antebellum - Love Don't Live Here
TTITLE6=Joe Nichols - Another Side Of You
TTITLE7=Crossin Dixon - Make You Mine
TTITLE8=Luke Bryan - We Rode In Trucks
TTITLE9=Halfway To Hazard - Devil And The Cross
TTITLE10=Shooter Jennings - Walk OF Life
TTITLE11=Martina McBride - For These Times
TTITLE12=Cross Canadian Ragweed - I Believe You
TTITLE13=Cole Deggs and The Lonesome - Girl Next Door
TTITLE14=Lee Brice - Happy Endings
TTITLE15=Billy Ray Cyrus feat. Miley Cyrus - Ready, Set, Don't Go
TTITLE16=Hal Ketchum - One More Midnight
TTITLE17=Kevin Sharp - Make A Wish
TTITLE18=Jeremy Boz - The Pearl
EXTD=
EXTT0=
EXTT1=
EXTT2=
EXTT3=
EXTT4=
EXTT5=
EXTT6=
EXTT7=
EXTT8=
EXTT9=
EXTT10=
EXTT11=
EXTT12=
EXTT13=
EXTT14=
EXTT15=
EXTT16=
EXTT17=
EXTT18=
PLAYORDER=
